# xmcd CD database file
#
# Track frame offsets:
#	150
#	20547
#	37350
#	55672
#	78490
#	93632
#	112575
#	131890
#	150047
#	174717
#	186595
#
# Disc length: 2745 seconds
#
# Revision: 1
# Processed by: cddbd v1.5.1PL0 Copyright (c) Steve Scherf et al.
# Submitted via: CDex 1.51
#
DISCID=8d0ab70b
DTITLE=TO/DIE/FOR - IV
DYEAR=2005
DGENRE=Gothic Metal
TTITLE0=Autumn Forever
TTITLE1=This World Is Made For Me
TTITLE2=Lise(For Fools)
TTITLE3=New Year's Day
TTITLE4=Chaotic Me
TTITLE5=Little Deaths
TTITLE6=No Turning Back
TTITLE7=Fragmented
TTITLE8=Endlessly
TTITLE9=Last Breath
TTITLE10=Live In You (acoustic version)
EXTD=YEAR: 2005
EXTT0=
EXTT1=
EXTT2=
EXTT3=
EXTT4=
EXTT5=
EXTT6=
EXTT7=
EXTT8=
EXTT9=
EXTT10=
PLAYORDER=
